<svg width="224" height="32" viewBox="0 0 224 32" fill="none" xmlns="http://www.w3.org/2000/svg">
<path d="M213.936 30.9998L205.704 18.7358L193.608 1.26377V0.759766H203.352L211.584 13.0238L223.68 30.4958V30.9998H213.936ZM193.776 30.9998V30.4958L206.04 13.1918L213.936 0.759766H223.512V1.26377L211.248 18.5678L203.352 30.9998H193.776Z" fill="#0D65AE"/>
<path d="M159.333 15.8799C159.333 12.7999 159.949 10.0839 161.181 7.73186C162.413 5.37986 164.219 3.54586 166.599 2.22986C168.979 0.91386 171.877 0.255859 175.293 0.255859C178.709 0.255859 181.607 0.91386 183.987 2.22986C186.367 3.54586 188.173 5.37986 189.405 7.73186C190.637 10.0839 191.253 12.7999 191.253 15.8799C191.253 18.9599 190.637 21.6759 189.405 24.0279C188.173 26.3799 186.367 28.2139 183.987 29.5299C181.607 30.8459 178.709 31.5039 175.293 31.5039C171.877 31.5039 168.979 30.8599 166.599 29.5719C164.219 28.2559 162.413 26.4359 161.181 24.1119C159.949 21.7599 159.333 19.0159 159.333 15.8799ZM168.405 15.8799C168.405 17.3919 168.643 18.7779 169.119 20.0379C169.595 21.2699 170.337 22.2639 171.345 23.0199C172.353 23.7479 173.669 24.1119 175.293 24.1119C176.917 24.1119 178.233 23.7479 179.241 23.0199C180.249 22.2639 180.991 21.2699 181.467 20.0379C181.943 18.7779 182.181 17.3919 182.181 15.8799C182.181 14.3679 181.943 12.9959 181.467 11.7639C180.991 10.5039 180.249 9.50986 179.241 8.78186C178.233 8.02586 176.917 7.64786 175.293 7.64786C173.669 7.64786 172.353 8.02586 171.345 8.78186C170.337 9.50986 169.595 10.5039 169.119 11.7639C168.643 12.9959 168.405 14.3679 168.405 15.8799Z" fill="#0D65AE"/>
<path d="M133.453 30.9998V24.1118H142.693C143.365 24.1118 143.897 23.9438 144.289 23.6078C144.681 23.2718 144.877 22.7678 144.877 22.0958C144.877 21.5078 144.681 21.0598 144.289 20.7518C143.897 20.4158 143.365 20.2478 142.693 20.2478H133.453V14.0318H140.845C141.629 14.0318 142.273 13.8778 142.777 13.5698C143.309 13.2618 143.701 12.8558 143.953 12.3518C144.233 11.8478 144.373 11.2878 144.373 10.6718C144.373 9.57977 144.051 8.86577 143.407 8.52977C142.763 8.16577 142.021 7.98377 141.181 7.98377H133.453V0.759766H141.937C145.773 0.759766 148.615 1.50177 150.463 2.98576C152.339 4.44177 153.277 6.55577 153.277 9.32777C153.277 10.5038 153.025 11.6518 152.521 12.7718C152.017 13.8918 151.275 14.8998 150.295 15.7958C149.315 16.6638 148.097 17.3218 146.641 17.7698L146.263 16.0478C148.699 16.1598 150.561 16.8738 151.849 18.1898C153.137 19.4778 153.781 21.0598 153.781 22.9358C153.781 24.7278 153.347 26.2258 152.479 27.4298C151.639 28.6058 150.407 29.5018 148.783 30.1178C147.187 30.7058 145.269 30.9998 143.029 30.9998H133.453ZM128.749 30.9998V0.759766H137.653V30.9998H128.749Z" fill="#0D65AE"/>
<path d="M100.512 30.9998V0.759766H109.416V30.9998H100.512ZM105.216 30.9998V23.2718H121.344V30.9998H105.216ZM105.216 19.7438V12.5198H118.992V19.7438H105.216ZM105.216 8.48777V0.759766H121.008V8.48777H105.216Z" fill="#0D65AE"/>
<path d="M71.4418 24.6158V17.5598H78.4978C79.8418 17.5598 80.9198 17.2938 81.7318 16.7618C82.5438 16.2298 83.1318 15.5438 83.4958 14.7038C83.8598 13.8638 84.0418 12.9678 84.0418 12.0158C84.0418 10.6718 83.6358 9.69177 82.8238 9.07577C82.0398 8.45977 80.9898 8.15177 79.6738 8.15177H71.4418V0.759766H79.6738C82.7258 0.759766 85.2178 1.22177 87.1498 2.14576C89.1098 3.04176 90.5658 4.31577 91.5178 5.96777C92.4698 7.59177 92.9458 9.49577 92.9458 11.6798C92.9458 13.6678 92.5538 15.4598 91.7698 17.0558C91.0138 18.6518 89.9778 20.0098 88.6618 21.1298C87.3458 22.2498 85.8338 23.1178 84.1258 23.7338C82.4458 24.3218 80.6818 24.6158 78.8338 24.6158H71.4418ZM66.7378 30.9998V0.759766H75.6418V30.9998H66.7378ZM83.7058 30.9998L78.4978 22.9358L86.6038 21.4238L93.4498 30.4958V30.9998H83.7058Z" fill="#0D65AE"/>
<path d="M31.6064 0.759766H40.5104V18.3998C40.5104 20.1638 40.8184 21.5638 41.4344 22.5998C42.0784 23.6078 43.2824 24.1118 45.0464 24.1118C46.8104 24.1118 48.0284 23.6078 48.7004 22.5998C49.4004 21.5638 49.7504 20.1638 49.7504 18.3998V0.759766H58.6544V17.8958C58.6544 22.3478 57.5624 25.7358 55.3784 28.0598C53.1944 30.3558 49.7504 31.5038 45.0464 31.5038C40.2584 31.5038 36.8144 30.3558 34.7144 28.0598C32.6424 25.7358 31.6064 22.3478 31.6064 17.8958V0.759766Z" fill="#0D65AE"/>
<path d="M1.18378 22.0959H1.68778C2.38778 22.4599 3.25578 22.8239 4.29178 23.1879C5.32778 23.5519 6.44778 23.8599 7.65178 24.1119C8.88378 24.3359 10.0878 24.4479 11.2638 24.4479C12.4398 24.4479 13.3918 24.3919 14.1198 24.2799C14.8758 24.1399 15.4218 23.9439 15.7578 23.6919C16.1218 23.4119 16.3038 23.0479 16.3038 22.5999C16.3038 22.0119 16.0798 21.5639 15.6318 21.2559C15.1838 20.9479 14.2878 20.6959 12.9438 20.4999L10.5918 20.1639C8.21178 19.8279 6.25178 19.2679 4.71178 18.4839C3.17178 17.6719 2.02378 16.6359 1.26778 15.3759C0.539781 14.0879 0.175781 12.5759 0.175781 10.8399C0.175781 8.71186 0.665781 6.86386 1.64578 5.29586C2.65378 3.69986 4.24978 2.46786 6.43378 1.59986C8.64578 0.70386 11.5438 0.255859 15.1278 0.255859C16.7238 0.255859 18.2358 0.38186 19.6638 0.63386C21.0918 0.88586 22.2678 1.20786 23.1918 1.59986V8.99186H22.6878C21.7638 8.57186 20.5738 8.19386 19.1178 7.85786C17.6898 7.49386 16.1358 7.31186 14.4558 7.31186C13.1118 7.31186 12.0198 7.42386 11.1798 7.64786C10.3398 7.87186 9.72378 8.20786 9.33178 8.65586C8.93978 9.10386 8.74378 9.66386 8.74378 10.3359C8.74378 11.1759 9.06578 11.7919 9.70978 12.1839C10.3538 12.5479 11.4878 12.8559 13.1118 13.1079L15.2958 13.4439C17.0318 13.6959 18.6418 14.1439 20.1258 14.7879C21.6098 15.4319 22.7998 16.3699 23.6958 17.6019C24.5918 18.8059 25.0398 20.4159 25.0398 22.4319C25.0398 24.1399 24.6758 25.5819 23.9478 26.7579C23.2198 27.9339 22.2118 28.8719 20.9238 29.5719C19.6358 30.2439 18.1658 30.7339 16.5138 31.0419C14.8618 31.3499 13.1118 31.5039 11.2638 31.5039C9.97578 31.5039 8.68778 31.4199 7.39978 31.2519C6.11178 31.0839 4.92178 30.8739 3.82978 30.6219C2.73778 30.3699 1.85578 30.1039 1.18378 29.8239V22.0959Z" fill="#0D65AE"/>
</svg>
